<svg xmlns="http://www.w3.org/2000/svg" width="36" height="24" viewBox="0 0 36 24" fill="none">
	<rect width="36" height="24" rx="2.4" fill="white" />
	<path d="M30 11.9163C30 16.0159 26.6833 19.3326 22.5837 19.3326C20.8532 19.3326 19.267 18.7352 18.0103 17.7464C19.7408 16.3867 20.8326 14.2854 20.8326 11.9163C20.8326 9.54721 19.7202 7.44593 18.0103 6.08627C19.267 5.09743 20.8532 4.5 22.5837 4.5C26.6833 4.5 30 7.83734 30 11.9163Z" fill="#F79E1B" />
	<path d="M18.0103 6.08627C18.0103 6.08627 18.0103 6.08627 18.0103 6.08627C19.7202 7.44593 20.8326 9.54721 20.8326 11.9163C20.8326 14.2854 19.7408 16.3867 18.0103 17.7464L17.9896 17.7464C16.2798 16.4073 15.1674 14.2854 15.1674 11.9164C15.1674 9.54725 16.2798 7.44597 17.9897 6.08631C17.9897 6.0863 17.9897 6.08633 17.9897 6.08631L18.0103 6.08627Z" fill="#FF5F00" />
	<path d="M15.1674 11.9164C15.1674 9.54725 16.2798 7.44597 17.9897 6.08631C16.733 5.09747 15.1468 4.50003 13.4163 4.50003C9.31674 4.50003 6 7.81677 6 11.9163C6 16.0159 9.31674 19.3327 13.4163 19.3327C15.1468 19.3327 16.733 18.7352 17.9896 17.7464C16.2798 16.4073 15.1674 14.2854 15.1674 11.9164Z" fill="#EB001B" />
</svg>
