<svg xmlns="http://www.w3.org/2000/svg" width="36" height="24" viewBox="0 0 36 24" fill="none">
	<rect width="36" height="24" rx="2.4" fill="white" />
	<path fill-rule="evenodd" clip-rule="evenodd" d="M23.4892 8.23796C23.4746 8.33222 23.4577 8.42855 23.4389 8.52753C22.7901 11.8723 20.5703 13.0278 17.7353 13.0278H16.2918C15.945 13.0278 15.6528 13.2805 15.5989 13.6239L14.6505 19.664C14.6154 19.8895 14.7885 20.0927 15.015 20.0927H17.5753C17.8784 20.0927 18.1359 19.8716 18.1837 19.5714L18.2088 19.4408L18.6909 16.3694L18.7219 16.2009C18.769 15.8997 19.0272 15.6784 19.3303 15.6784H19.7131C22.1936 15.6784 24.1355 14.6673 24.703 11.7412C24.94 10.5189 24.8173 9.49819 24.19 8.78038C24.0001 8.56397 23.7646 8.3843 23.4892 8.23796Z" fill="#298FC2" />
	<path fill-rule="evenodd" clip-rule="evenodd" d="M22.8102 7.96628C22.711 7.93722 22.6087 7.91096 22.5038 7.88721C22.3983 7.86405 22.2904 7.84354 22.1791 7.82555C21.7899 7.76241 21.3634 7.73246 20.9066 7.73246H17.0504C16.9553 7.73246 16.8651 7.754 16.7845 7.79295C16.6066 7.8788 16.4745 8.04786 16.4424 8.25482L15.622 13.4719L15.5985 13.624C15.6524 13.2806 15.9447 13.0279 16.2914 13.0279H17.7349C20.5699 13.0279 22.7897 11.8718 23.4385 8.52758C23.4579 8.4286 23.4742 8.33227 23.4888 8.238C23.3247 8.15053 23.1469 8.07574 22.9555 8.01201C22.9082 7.99622 22.8594 7.98103 22.8102 7.96628Z" fill="#22284F" />
	<path fill-rule="evenodd" clip-rule="evenodd" d="M16.4424 8.25482C16.4745 8.04786 16.6067 7.87881 16.7847 7.79355C16.8659 7.75446 16.9555 7.73292 17.0506 7.73292H20.9068C21.3636 7.73292 21.7901 7.76301 22.1793 7.82615C22.2905 7.844 22.3985 7.86465 22.504 7.88781C22.6089 7.91142 22.7112 7.93782 22.8104 7.96673C22.8596 7.98149 22.9083 7.99683 22.9561 8.01202C23.1475 8.07575 23.3255 8.15113 23.4896 8.23802C23.6826 7.00198 23.488 6.16039 22.8224 5.39832C22.0885 4.55925 20.7642 4.2002 19.0694 4.2002H14.1493C13.8032 4.2002 13.5079 4.45289 13.4544 4.7969L11.4051 17.8393C11.3647 18.0973 11.5629 18.3301 11.8221 18.3301H14.8596L16.4424 8.25482Z" fill="#28356A" />
</svg>
