<svg xmlns="http://www.w3.org/2000/svg" width="18" height="16" viewBox="0 0 18 16" fill="none">
	<path d="M12.2858 0C10.182 0 8.47646 1.79086 8.47646 4C8.47646 4.33382 8.51541 4.65809 8.58879 4.96808C6.56586 4.96808 3.5189 4.55908 0.974194 2.00961C0.63581 1.67059 0.0118404 1.89726 0.0353118 2.37567C0.412437 10.0627 3.70452 12.3049 5.39986 12.4444C4.30511 13.5257 2.71486 14.3791 1.11464 14.7622C0.692319 14.8633 0.587992 15.3256 1.00096 15.4599C2.14598 15.8323 3.78492 15.9758 4.66711 16C10.9079 16 15.9804 10.7471 16.0933 4.22229C16.9126 3.68945 17.4375 2.5325 17.7324 1.71291C17.8042 1.5133 17.4771 1.28073 17.2812 1.36226C16.6691 1.61708 15.8921 1.67749 15.2302 1.46181C14.5315 0.569266 13.472 0 12.2858 0Z" fill="currentColor" />
</svg>
