<svg xmlns="http://www.w3.org/2000/svg" width="36" height="24" viewBox="0 0 36 24" fill="none">
	<rect width="36" height="24" rx="2.4" fill="white" />
	<path d="M24.3742 7.87013C23.9308 7.69422 23.2275 7.5 22.3579 7.5C20.138 7.5 18.5748 8.68378 18.5652 10.3762C18.5467 11.6249 19.6844 12.3184 20.5353 12.7348C21.405 13.1602 21.7007 13.4379 21.7007 13.8172C21.6918 14.3996 20.9979 14.6681 20.3507 14.6681C19.4532 14.6681 18.9723 14.5296 18.2415 14.2056L17.9455 14.0667L17.6309 16.0183C18.1582 16.2585 19.1295 16.4716 20.138 16.481C22.4967 16.481 24.0323 15.3155 24.0505 13.5119C24.0595 12.5223 23.4587 11.7639 22.1636 11.1443C21.3774 10.7465 20.8959 10.4782 20.8959 10.0712C20.9051 9.70123 21.3031 9.32225 22.1906 9.32225C22.9214 9.30369 23.4584 9.47935 23.8651 9.65514L24.0685 9.74745L24.3742 7.87013Z" fill="#3362AB" />
	<path d="M16.2252 16.3514H13.9772L15.3833 7.65759H17.6311L16.2252 16.3514Z" fill="#3362AB" />
	<path fill-rule="evenodd" clip-rule="evenodd" d="M30.1367 7.65759H28.3979C27.8617 7.65759 27.4543 7.81469 27.223 8.37892L23.8839 16.3513H26.2426C26.2426 16.3513 26.631 15.2783 26.7144 15.0472H29.6006C29.6651 15.3524 29.8688 16.3513 29.8688 16.3513H31.9502L30.1367 7.65759ZM27.3619 13.2715C27.547 12.772 28.2593 10.839 28.2593 10.839C28.2556 10.8465 28.2846 10.7662 28.3278 10.6464L28.3283 10.6449L28.3286 10.644C28.3932 10.4651 28.489 10.1996 28.5551 10.0067L28.7122 10.7558C28.7122 10.7558 29.1379 12.8368 29.2303 13.2715H27.3619Z" fill="#3362AB" />
	<path d="M12.0997 7.65759L9.89818 13.5859L9.65761 12.3836L9.65739 12.3829L8.87138 8.38838C8.74194 7.83313 8.34415 7.67591 7.85392 7.65759H4.2372L4.2002 7.83325C5.0823 8.05882 5.87126 8.38387 6.56256 8.78803L8.56615 16.3422H10.9433L14.4767 7.65759H12.0997Z" fill="#3362AB" />
</svg>
